<?xml version="1.0" encoding="UTF-8"?>
<svg id="Capa_2" data-name="Capa 2" xmlns="http://www.w3.org/2000/svg" viewBox="0 0 618 537.29">
  <g id="Capa_1-2" data-name="Capa 1">
    <path d="M307.51,157.98c-4.9-.88-9.91.91-14.45,1.04-3.77.11-8.19-.97-11.05-.84-18.27.89-35.83,7.29-50,18.78-1.4-.03-11.82-22.69-11.51-25.47l67.91-15.62,2.12-58.39,2.88-27.07-10.73-16.78L308.01,0l25.34,32.63-10.93,18.84c3.36,28.03,3.56,56.33,5.1,84.5l67.99,15.02-11.01,26.99c-14.3-13.46-32.56-18.62-51.99-19v166.5c0,4.29-6.11,21.91-7.98,27.02-1.64,4.48-13,31.57-17.48,30.48-9.25-12.44-16.4-27.74-20.25-42.78-.8-3.11-3.28-12.25-3.28-14.72v-164.5c8.1.93,11.05,8.41,11.87,15.63,3.33,47.42-4.03,100.05.14,146.86.91,10.19,5.97,25.29,11.98,33.52v-199Z"/>
    <path d="M370,423.29l51,76v-76h22v114h-23.5l-49.04-73.96c-3.12-2.87-.46,2.09-.46,2.46v71.5h-22.5l-1.5-1.5v-111l1.5-1.5h22.5Z"/>
    <path d="M269,445.29v25h46v19.5l-1.5,1.5h-44.5v25h52.5l1.5,1.5v19.5h-78v-112.5l1.5-1.5h74c2.56,0,.41,8.3.44,10.5s2.24,11.5-.44,11.5h-51.5Z"/>
    <path d="M155,423.29v52l44.5-52h25.5l-43.83,55.34,46.83,58.66h-28.5c-14.53-16.45-27.6-34.36-42.21-50.72-.59-.67.08-1.91-2.29-1.28v52h-23v-114h23Z"/>
    <path d="M541.5,423.29l23.66,36.34,2.33,1.67,24.01-38.01h25.5l-36.68,54.51,37.68,59.49h-26.5c-9.33-11.74-15.81-27.63-24.67-39.33-.65-.86-.93-1.98-2.32-1.68l-25.51,41.01h-27l39.68-59.51-36.68-54.49h26.5Z"/>
    <rect x="471" y="423.29" width="23" height="114"/>
    <path d="M68.54,423.22c-7.22,1.04-17.23-1.18-24.04.07-1.12.2-1.91.49-2.41,1.59L0,537.29h25l8.14-23.86,45.98.46,9.39,23.41h23.5l-43.46-114.07ZM42.5,492.29c-.32.02-3.18,2.59-2.45-.44l16.44-41.57,15.51,42.01c-9.78.38-19.72-.51-29.5,0Z"/>
  </g>
</svg>